<svg xmlns="http://www.w3.org/2000/svg" style="display: none;">
    <symbol id="people" viewBox="0 0 350 350">
      <title>people icon</title>
      <path d="M175 171.173c38.914 0 70.463-38.318 70.463-85.586C245.463 38.317 235.105 0 175 0s-70.465 38.318-70.465 85.587c0 47.268 31.55 85.586 70.465 85.586zM41.91 301.853c-.013-2.882-.025-.812 0 0zM308.085 304.104c.038-.79.013-5.474 0 0zM307.935 298.397c-1.305-82.342-12.06-105.805-94.352-120.657 0 0-11.584 14.76-38.584 14.76s-38.587-14.76-38.587-14.76C55.018 192.43 43.61 215.545 42.11 295.722c-.123 6.547-.18 6.89-.202 6.13.005 1.425.01 4.06.01 8.652 0 0 19.593 39.496 133.08 39.496 113.487 0 133.08-39.496 133.08-39.496 0-2.95.003-5.003.006-6.4-.022.47-.066-.44-.15-5.707z"/>
    </symbol>
    <symbol id="show-bike" viewBox="0 0 24 24">
      <title>show-bike icon</title>
      <path d="M16 4.8c1 0 1.8-.8 1.8-1.8S17 1.2 16 1.2 14.2 2 14.2 3 15 4.8 16 4.8zm3 7.2c-2.8 0-5 2.2-5 5s2.2 5 5 5 5-2.2 5-5-2.2-5-5-5zm0 8.5c-1.9 0-3.5-1.6-3.5-3.5s1.6-3.5 3.5-3.5 3.5 1.6 3.5 3.5-1.6 3.5-3.5 3.5zM14.8 10H19V8.2h-3.2l-1.9-3.3c-.3-.5-.8-.8-1.5-.8-.5 0-.9.2-1.2.5L7.5 8.3c-.3.3-.5.7-.5 1.2 0 .6.3 1.2.8 1.5l3.4 2v5H13v-6.5l-2.2-1.7 2.3-2.3 1.7 2.5zM5 12c-2.8 0-5 2.2-5 5s2.2 5 5 5 5-2.2 5-5-2.2-5-5-5zm0 8.5c-1.9 0-3.5-1.6-3.5-3.5s1.6-3.5 3.5-3.5 3.5 1.6 3.5 3.5-1.6 3.5-3.5 3.5z"/>
    </symbol>
    <symbol id="show-button" viewBox="0 0 24 24">
      <title>show-button icon</title>
      <path d="M8 5v14l11-7z"/>
    </symbol>
    <symbol id="show-calendar" viewBox="0 0 24 24">
      <title>show-calendar icon</title>
      <g><path d="M19 3h-1V1h-2v2H8V1H6v2H5c-1.1 0-2 .9-2 2v14c0 1.1.9 2 2 2h14c1.1 0 2-.9 2-2V5c0-1.1-.9-2-2-2zm0 16H5V8h14v11zM7 10h5v5H7z"/></g>
    </symbol>
    <symbol id="show-charts" viewBox="0 0 24 24">
      <title>show-charts icon</title>
      <path d="M13 2.1v3c3.4.5 6 3.4 6 6.9 0 .9-.2 1.7-.5 2.5l2.6 1.5c.6-1.2.9-2.6.9-4.1 0-5.1-3.9-9.3-9-9.8zM12 19c-3.9 0-7-3.1-7-7 0-3.5 2.6-6.4 6-6.9v-3c-5.1.4-9 4.7-9 9.9 0 5.5 4.5 10 10 10 3.3 0 6.2-1.6 8.1-4.1l-2.6-1.5C16.2 18 14.2 19 12 19z"/>
    </symbol>
    <symbol id="show-dialog" viewBox="0 0 24 24">
      <title>show-dialog icon</title>
      <path d="M20 2H4c-1.1 0-2 .9-2 2v18l4-4h14c1.1 0 2-.9 2-2V4c0-1.1-.9-2-2-2zm-2 12H6v-2h12v2zm0-3H6V9h12v2zm0-3H6V6h12v2z"/>
    </symbol>
    <symbol id="show-feedback" viewBox="0 0 24 24">
      <title>show-feedback icon</title>
      <path d="M11.5 2C6.8 2 3 5.8 3 10.5S6.8 19 11.5 19h.5v3.5c4.9-2.3 8-7.5 8-12C20 5.8 16.2 2 11.5 2zm-.5 9l-1 2H8.5l1-2H8V8h3v3zm4 0l-1 2h-1.5l1-2H12V8h3v3z"/>
    </symbol>
    <symbol id="show-form" viewBox="0 0 434.168 434.168">
      <title>show-form icon</title>
      <path d="M332.318 230.196V34.966H40.93v364.236h134.038c9.616 0 17.483 7.867 17.483 17.483s-7.866 17.483-17.482 17.483H23.446c-9.616 0-17.483-7.867-17.483-17.483V17.483C5.963 7.867 13.83 0 23.446 0H349.8c9.616 0 17.483 7.867 17.483 17.483v212.713c0 9.616-7.867 17.483-17.483 17.483s-17.482-7.868-17.482-17.484zm90.04 42.543c-7.286-6.412-18.358-5.83-24.77 1.456l-95.866 106.648-48.08-46.33c-6.992-6.703-18.065-6.412-24.767.582s-6.41 18.066.583 24.768l61.19 58.86c3.206 3.205 7.577 4.954 12.24 4.954h.582c4.662-.29 9.324-2.33 12.238-5.828l107.814-120.052c6.702-7.576 6.12-18.648-1.165-25.06zM268.21 101.985h-157.35c-9.615 0-17.482 7.867-17.482 17.483s7.867 17.482 17.483 17.482h157.35c9.615 0 17.482-7.867 17.482-17.483s-7.867-17.484-17.483-17.484zm17.484 113.64c0-9.615-7.867-17.482-17.483-17.482h-157.35c-9.616 0-17.483 7.867-17.483 17.483s7.867 17.483 17.483 17.483h157.35c9.615 0 17.483-7.867 17.483-17.483zM110.863 291.39c-9.616 0-17.483 7.867-17.483 17.483 0 9.617 7.867 17.484 17.483 17.484h46.622c9.616 0 17.483-7.867 17.483-17.483 0-9.615-7.867-17.482-17.483-17.482h-46.622z"/>
    </symbol>
    <symbol id="show-github" viewBox="0 0 30 30">
      <title>show-github icon</title>
      <title>Shape</title><desc>Created with Sketch.</desc><path d="M15 0C6.7 0 0 6.7 0 15c0 6.6 4.3 12.2 10.3 14.2.8.1 1-.3 1-.7v-2.6c-4.2.9-5.1-2-5.1-2-.7-1.7-1.7-2.2-1.7-2.2-1.4-.9.1-.9.1-.9 1.5.1 2.3 1.5 2.3 1.5 1.3 2.3 3.5 1.6 4.4 1.2.1-1 .5-1.6 1-2-3.3-.4-6.8-1.7-6.8-7.4 0-1.6.6-3 1.5-4-.2-.4-.7-1.9.1-4 0 0 1.3-.4 4.1 1.5 1.2-.3 2.5-.5 3.8-.5 1.3 0 2.6.2 3.8.5 2.9-1.9 4.1-1.5 4.1-1.5.8 2.1.3 3.6.1 4 1 1 1.5 2.4 1.5 4 0 5.8-3.5 7-6.8 7.4.5.5 1 1.4 1 2.8v4.1c0 .4.3.9 1 .7 6-2 10.2-7.6 10.2-14.2C30 6.7 23.3 0 15 0z" fill-rule="evenodd"/>
    </symbol>
    <symbol id="show-icon-bg" viewBox="0 0 320 320">
      <title>show-icon-bg icon</title>
      <title>show-icon-bg</title><desc>Created with Sketch.</desc><path d="M160 320c110 0 160-50 160-160S270 0 160 0 0 50 0 160s50 160 160 160z" fill-rule="evenodd"/>
    </symbol>
    <symbol id="show-icon" viewBox="0 0 24 24">
      <title>show-icon icon</title>
      <path d="M22 9.244l-7.19-.617L12 2 9.19 8.627 2 9.244l5.455 4.727L5.82 21 12 17.272 18.18 21l-1.635-7.03L22 9.245zm-10 6.152l-3.763 2.27.996-4.28-3.323-2.88 4.38-.375L12 6.096l1.71 4.036 4.38.377-3.322 2.878.996 4.28L12 15.396z"/>
    </symbol>
    <symbol id="show-img-text" viewBox="0 0 24 24">
      <title>show-img-text icon</title>
      <path d="M16.5 3c-1.7 0-3.4.8-4.5 2.1C10.9 3.8 9.2 3 7.5 3 4.4 3 2 5.4 2 8.5c0 3.8 3.4 6.9 8.6 11.5l1.4 1.3 1.4-1.3c5.1-4.7 8.6-7.8 8.6-11.5C22 5.4 19.6 3 16.5 3zm-4.4 15.6H12l-.1-.1C7.1 14.2 4 11.4 4 8.5 4 6.5 5.5 5 7.5 5c1.5 0 3 1 3.6 2.4H13C13.5 6 15 5 16.5 5c2 0 3.5 1.5 3.5 3.5 0 2.9-3.1 5.7-7.9 10.1z"/>
    </symbol>
    <symbol id="show-img" viewBox="0 0 24 24">
      <title>show-img icon</title>
      <path d="M19 3H5c-1.1 0-2 .9-2 2v14c0 1.1.9 2 2 2h14c1.1 0 2-.9 2-2V5c0-1.1-.9-2-2-2zm-1 15h-6v-5.8c-.7.6-1.5 1-2.5 1-2 0-3.7-1.7-3.7-3.7s1.7-3.7 3.7-3.7 3.7 1.7 3.7 3.7c0 1-.4 1.8-1 2.5H18v6z"/>
    </symbol>
    <symbol id="show-info" viewBox="0 0 24 24">
      <title>show-info icon</title>
      <path d="M11 17h2v-6h-2v6zm1-15C6.5 2 2 6.5 2 12s4.5 10 10 10 10-4.5 10-10S17.5 2 12 2zm0 18c-4.4 0-8-3.6-8-8s3.6-8 8-8 8 3.6 8 8-3.6 8-8 8zM11 9h2V7h-2v2z"/>
    </symbol>
    <symbol id="show-layout" viewBox="0 0 24 24">
      <title>show-layout icon</title>
      <path d="M10 18h5v-6h-5v6zm-6 0h5V5H4v13zm12 0h5v-6h-5v6zM10 5v6h11V5H10z"/>
    </symbol>
    <symbol id="show-list" viewBox="0 0 24 24">
      <title>show-list icon</title>
      <path d="M3 13h2v-2H3v2zm0 4h2v-2H3v2zm0-8h2V7H3v2zm4 4h14v-2H7v2zm0 4h14v-2H7v2zM7 7v2h14V7H7z"/>
    </symbol>
    <symbol id="show-native" viewBox="0 0 24 24">
      <title>show-native icon</title>
      <path d="M12 2C8.1 2 5 5.1 5 9c0 5.2 7 13 7 13s7-7.8 7-13c0-3.9-3.1-7-7-7zm0 9.5c-1.4 0-2.5-1.1-2.5-2.5s1.1-2.5 2.5-2.5 2.5 1.1 2.5 2.5-1.1 2.5-2.5 2.5z"/>
    </symbol>
    <symbol id="show-other" viewBox="0 0 24 24">
      <title>show-other icon</title>
      <path d="M6 10c-1.1 0-2 .9-2 2s.9 2 2 2 2-.9 2-2-.9-2-2-2zm12 0c-1.1 0-2 .9-2 2s.9 2 2 2 2-.9 2-2-.9-2-2-2zm-6 0c-1.1 0-2 .9-2 2s.9 2 2 2 2-.9 2-2-.9-2-2-2z"/>
    </symbol>
    <symbol id="show-project" viewBox="0 0 24 24">
      <title>show-project icon</title>
      <path d="M12 10c2.2 0 4-1.8 4-4s-1.8-4-4-4-4 1.8-4 4 1.8 4 4 4zm0-6c1.1 0 2 .9 2 2s-.9 2-2 2-2-.9-2-2 .9-2 2-2zm-6 9c-2.2 0-4 1.8-4 4s1.8 4 4 4 4-1.8 4-4-1.8-4-4-4zm0 6c-1.1 0-2-.9-2-2s.9-2 2-2 2 .9 2 2-.9 2-2 2zm6-7.9c-1 0-1.9.9-1.9 1.9s.9 1.9 1.9 1.9c1 0 1.9-.9 1.9-1.9s-.9-1.9-1.9-1.9zm6 1.9c-2.2 0-4 1.8-4 4s1.8 4 4 4 4-1.8 4-4-1.8-4-4-4zm0 6c-1.1 0-2-.9-2-2s.9-2 2-2 2 .9 2 2-.9 2-2 2z"/>
    </symbol>
    <symbol id="show-slide" viewBox="0 0 24 24">
      <title>show-slide icon</title>
      <path d="M4 18h3V5H4v13zM18 5v13h3V5h-3zM8 18h9V5H8v13z"/>
    </symbol>
    <symbol id="tingle-checkbox-checked" viewBox="0 0 128 128">
      <title>tingle-checkbox-checked icon</title>
      <path d="M42 75l71-56 14 18-87 70L1 61l17-14z"/>
    </symbol>
    <symbol id="tingle-photo-field-camera" viewBox="0 0 612 612">
      <title>tingle-photo-field-camera icon</title>
      <path d="M581.347 146.42H453.09l-4.337-30.646-3.326-20.66c-1.343-8.324-5.75-15.225-12.665-20.99-7.08-5.898-14.655-8.99-22.985-8.99h-208.55c-8.33 0-15.99 2.992-22.99 8.99-6.995 6-10.712 13.036-11.99 20.99l-3.334 20.66-4.663 30.646H30.654C13.66 146.42 0 160.08 0 176.406v339.812c0 16.986 13.66 30.646 30.654 30.646h550.693c16.993 0 30.653-13.66 30.653-30.646V176.406c0-16.325-13.66-29.986-30.653-29.986zm-6.326 363.467H36.653V183.065H158.25c18.323 0 34.144-13.632 36.645-31.314l4.33-30.645 3.332-18.99h206.55l3 18.99 4.663 30.646c2.687 17.655 18.656 31.315 36.318 31.315H575.02v326.822zM515.718 270.016c15.99 0 29.317-13.653 29.317-29.644 0-16.326-12.992-29.986-29.317-29.986s-29.317 13.66-29.317 29.986c0 15.99 13.327 29.644 29.318 29.644zM305.5 192.73c-37.64 0-70.292 13.654-97.278 40.64s-40.646 59.637-40.646 97.285c0 37.64 13.66 70.29 40.646 97.277s59.637 39.75 97.277 40.312c74.633 1.102 138.804-63.625 137.923-137.59-.448-37.98-13.66-70.298-40.64-97.285-26.986-26.986-59.303-40.64-97.284-40.64zm71.292 209.552c-19.65 19.65-43.305 29.31-71.293 29.31-27.648 0-51.3-9.658-70.96-29.31-19.66-19.66-29.317-43.646-29.317-71.627 0-27.654 9.66-51.642 29.317-71.3 19.66-19.652 43.312-29.645 70.96-29.645 27.987 0 51.64 9.993 71.292 29.645 19.658 19.66 29.65 43.646 29.65 71.3 0 27.982-9.992 51.968-29.65 71.627z"/>
    </symbol>
    <symbol id="tingle-select-field-arrow-right" viewBox="0 0 1024 1024">
      <title>tingle-select-field-arrow-right icon</title>
      <path d="M338.52 810.61l30.176 30.174L685.48 524 368.696 207.216l-30.168 30.17L625.138 524z"/>
    </symbol>
    <symbol id="tingle-tip-error" viewBox="0 0 476.737 476.737">
      <title>tingle-tip-error icon</title>
      <path d="M238.37 0C106.725 0 0 106.726 0 238.37c0 131.674 106.726 238.368 238.37 238.368 131.674 0 238.368-106.694 238.368-238.37C476.738 106.727 370.043 0 238.368 0zm110.443 150.395l-88.578 88.61 78.407 87.338c6.198 6.198 6.198 16.304 0 22.47-6.166 6.198-16.273 6.198-22.438 0l-78.407-87.338-87.37 87.338c-6.198 6.198-16.273 6.198-22.47 0-6.198-6.166-6.198-16.273 0-22.47l88.578-88.578-78.376-87.37c-6.2-6.198-6.2-16.273 0-22.47s16.272-6.198 22.47 0l78.406 87.37 87.338-87.37c6.198-6.198 16.273-6.198 22.47 0 6.198 6.197 6.166 16.272-.03 22.47z" fill="#010002"/>
    </symbol>
    <symbol id="tingle-tip-fail" viewBox="0 0 108.364 108.364">
      <title>tingle-tip-fail icon</title>
      <path d="M54.182 0C24.258 0 0 24.258 0 54.182c0 29.924 24.258 54.183 54.182 54.183 29.923 0 54.182-24.26 54.182-54.183C108.364 24.258 84.104 0 54.182 0zm14.53 33.622c3.425 0 6.202 2.777 6.202 6.2 0 3.427-2.777 6.204-6.2 6.204-3.424 0-6.204-2.777-6.204-6.203 0-3.424 2.78-6.2 6.203-6.2zm-28.118 0c3.423 0 6.2 2.777 6.2 6.2 0 3.427-2.777 6.204-6.2 6.204s-6.2-2.777-6.2-6.203c0-3.424 2.776-6.2 6.2-6.2zm36.013 45.476c-1.52.66-3.286-.04-3.944-1.562-2.894-6.69-9.73-11.012-17.42-11.012-7.87 0-14.748 4.32-17.524 11.005-.48 1.152-1.597 1.85-2.772 1.85-.384 0-.773-.074-1.15-.23-1.53-.637-2.255-2.393-1.62-3.922 3.71-8.932 12.764-14.703 23.064-14.703 10.084 0 19.084 5.742 22.928 14.63.658 1.52-.042 3.284-1.563 3.943z"/>
    </symbol>
    <symbol id="tingle-tip-loading" viewBox="0 0 26.349 26.35">
      <title>tingle-tip-loading icon</title>
      <circle cx="13.792" cy="3.082" r="3.082"/><circle cx="13.792" cy="24.501" r="1.849"/><circle cx="6.219" cy="6.218" r="2.774"/><circle cx="21.365" cy="21.363" r="1.541"/><circle cx="3.082" cy="13.792" r="2.465"/><circle cx="24.501" cy="13.791" r="1.232"/><path d="M4.694 19.84c-.843.843-.843 2.207 0 3.05.842.843 2.208.843 3.05 0 .843-.843.843-2.207 0-3.05-.842-.844-2.207-.852-3.05 0z"/><circle cx="21.364" cy="6.218" r=".924"/>
    </symbol>
    <symbol id="tingle-tip-success" viewBox="0 0 369.946 369.946">
      <title>tingle-tip-success icon</title>
      <path d="M184.973 0C82.98 0 0 82.975 0 184.973s82.98 184.973 184.973 184.973 184.973-82.975 184.973-184.973S286.966 0 184.973 0zm-34.196 263.873l-66.125-66.125 8.437-8.437L150.776 247l125.56-125.562 8.438 8.437-133.998 133.998z" fill="#010002"/>
    </symbol>
    <symbol id="add" viewBox="0 0 24 24">
      <title>add icon</title>
      <path d="M19 13h-6v6h-2v-6H5v-2h6V5h2v6h6v2z"/>
    </symbol>
    <symbol id="angle-down" viewBox="0 0 24 24">
      <title>angle-down icon</title>
      <path d="M7.4 7.8l4.6 4.6 4.6-4.6L18 9.2l-6 6-6-6z"/>
    </symbol>
    <symbol id="angle-left" viewBox="0 0 24 24">
      <title>angle-left icon</title>
      <path d="M15.4 7.4L14 6l-6 6 6 6 1.4-1.4-4.6-4.6z"/>
    </symbol>
    <symbol id="angle-right" viewBox="0 0 24 24">
      <title>angle-right icon</title>
      <path d="M10 6L8.6 7.4l4.6 4.6-4.6 4.6L10 18l6-6z"/>
    </symbol>
    <symbol id="angle-up" viewBox="0 0 24 24">
      <title>angle-up icon</title>
      <path d="M12 8l-6 6 1.4 1.4 4.6-4.6 4.6 4.6L18 14z"/>
    </symbol>
    <symbol id="attachment" viewBox="0 0 24 24">
      <title>attachment icon</title>
      <path d="M7.5 18c-3 0-5.5-2.5-5.5-5.5S4.5 7 7.5 7H18c2.2 0 4 1.8 4 4s-1.8 4-4 4H9.5C8.1 15 7 13.9 7 12.5S8.1 10 9.5 10H17v1.5H9.5c-.6 0-1 .4-1 1s.4 1 1 1H18c1.4 0 2.5-1.1 2.5-2.5S19.4 8.5 18 8.5H7.5c-2.2 0-4 1.8-4 4s1.8 4 4 4H17V18H7.5z"/>
    </symbol>
    <symbol id="bookmark" viewBox="0 0 24 24">
      <title>bookmark icon</title>
      <path d="M17 3H7c-1.1 0-2 .9-2 2v16l7-3 7 3V5c0-1.1-.9-2-2-2z"/>
    </symbol>
    <symbol id="check" viewBox="0 0 24 24">
      <title>check icon</title>
      <path d="M9 16.2L4.8 12l-1.4 1.4L9 19 21 7l-1.4-1.4z"/>
    </symbol>
    <symbol id="cross" viewBox="0 0 24 24">
      <title>cross icon</title>
      <path d="M19 6.4L17.6 5 12 10.6 6.4 5 5 6.4l5.6 5.6L5 17.6 6.4 19l5.6-5.6 5.6 5.6 1.4-1.4-5.6-5.6z"/>
    </symbol>
    <symbol id="list-index" viewBox="0 0 24 24">
      <title>list-index icon</title>
      <path d="M3 13h2v-2H3v2zm0 4h2v-2H3v2zm0-8h2V7H3v2zm4 4h14v-2H7v2zm0 4h14v-2H7v2zM7 7v2h14V7H7z"/>
    </symbol>
    <symbol id="magic" viewBox="0 0 24 24">
      <title>magic icon</title>
      <g><path d="M7.5 5.6L10 7 8.6 4.5 10 2 7.5 3.4 5 2l1.4 2.5L5 7zM19.5 15.4L17 14l1.4 2.5L17 19l2.5-1.4L22 19l-1.4-2.5L22 14zM22 2l-2.5 1.4L17 2l1.4 2.5L17 7l2.5-1.4L22 7l-1.4-2.5zM14.4 7.3c-.4-.4-1-.4-1.4 0L1.3 19c-.4.4-.4 1 0 1.4l2.3 2.3c.4.4 1 .4 1.4 0L16.7 11c.4-.4.4-1 0-1.4l-2.3-2.3zm-1.1 5.5l-2.1-2.1 2.4-2.4 2.1 2.1-2.4 2.4z"/></g>
    </symbol>
    <symbol id="map-marker" viewBox="0 0 24 24">
      <title>map-marker icon</title>
      <path d="M12 2C8.1 2 5 5.1 5 9c0 5.2 7 13 7 13s7-7.8 7-13c0-3.9-3.1-7-7-7zm0 9.5c-1.4 0-2.5-1.1-2.5-2.5s1.1-2.5 2.5-2.5 2.5 1.1 2.5 2.5-1.1 2.5-2.5 2.5z"/>
    </symbol>
    <symbol id="painter" viewBox="0 0 24 24">
      <title>painter icon</title>
      <path d="M12 3c-5 0-9 4-9 9s4 9 9 9c.8 0 1.5-.7 1.5-1.5 0-.4-.1-.7-.4-1-.2-.3-.4-.6-.4-1 0-.8.7-1.5 1.5-1.5H16c2.8 0 5-2.2 5-5 0-4.4-4-8-9-8zm-5.5 9c-.8 0-1.5-.7-1.5-1.5S5.7 9 6.5 9 8 9.7 8 10.5 7.3 12 6.5 12zm3-4C8.7 8 8 7.3 8 6.5S8.7 5 9.5 5s1.5.7 1.5 1.5S10.3 8 9.5 8zm5 0c-.8 0-1.5-.7-1.5-1.5S13.7 5 14.5 5s1.5.7 1.5 1.5S15.3 8 14.5 8zm3 4c-.8 0-1.5-.7-1.5-1.5S16.7 9 17.5 9s1.5.7 1.5 1.5-.7 1.5-1.5 1.5z"/>
    </symbol>
    <symbol id="pen-underline" viewBox="0 0 24 24">
      <title>pen-underline icon</title>
      <path d="M3 17.2V21h3.8l11-11.1L14 6.1 3 17.2zM20.7 7c.4-.4.4-1 0-1.4l-2.3-2.3c-.4-.4-1-.4-1.4 0l-1.8 1.8L19 8.9 20.7 7zM12 19l-2 2h13v-2H12z"/>
    </symbol>
    <symbol id="refresh" viewBox="0 0 24 24">
      <title>refresh icon</title>
      <path d="M17.6 6.4C16.2 4.9 14.2 4 12 4c-4.4 0-8 3.6-8 8s3.6 8 8 8c3.7 0 6.8-2.6 7.7-6h-2.1c-.8 2.3-3 4-5.6 4-3.3 0-6-2.7-6-6s2.7-6 6-6c1.7 0 3.1.7 4.2 1.8L13 11h7V4l-2.4 2.4z"/>
    </symbol>
    <symbol id="search" viewBox="0 0 24 24">
      <title>search icon</title>
      <path d="M15.5 14h-.8l-.3-.3c1-1.1 1.6-2.6 1.6-4.2C16 5.9 13.1 3 9.5 3S3 5.9 3 9.5 5.9 16 9.5 16c1.6 0 3.1-.6 4.2-1.6l.3.3v.8l5 5 1.5-1.5-5-5zm-6 0C7 14 5 12 5 9.5S7 5 9.5 5 14 7 14 9.5 12 14 9.5 14z"/>
    </symbol>
    <symbol id="setting" viewBox="0 0 24 24">
      <title>setting icon</title>
      <path d="M19.4 13c0-.3.1-.6.1-1s0-.7-.1-1l2.1-1.7c.2-.2.2-.4.1-.6l-2-3.5c-.1-.1-.3-.2-.6-.1l-2.5 1c-.5-.4-1.1-.7-1.7-1l-.4-2.6c.1-.3-.2-.5-.4-.5h-4c-.2 0-.5.2-.5.4l-.4 2.7c-.6.2-1.1.6-1.7 1L5 5.1c-.3-.1-.5 0-.7.2l-2 3.5c-.1.1 0 .4.2.6L4.6 11c0 .3-.1.6-.1 1s0 .7.1 1l-2.1 1.7c-.2.2-.2.4-.1.6l2 3.5c.1.1.3.2.6.1l2.5-1c.5.4 1.1.7 1.7 1l.4 2.6c0 .2.2.4.5.4h4c.2 0 .5-.2.5-.4l.4-2.6c.6-.3 1.2-.6 1.7-1l2.5 1c.2.1.5 0 .6-.2l2-3.5c.1-.2.1-.5-.1-.6L19.4 13zM12 15.5c-1.9 0-3.5-1.6-3.5-3.5s1.6-3.5 3.5-3.5 3.5 1.6 3.5 3.5-1.6 3.5-3.5 3.5z"/>
    </symbol>
    <symbol id="share" viewBox="0 0 24 24">
      <title>share icon</title>
      <path d="M18 9c-.8 0-1.5.3-2 .8L8.9 5.7c.1-.2.1-.5.1-.7 0-1.7-1.3-3-3-3S3 3.3 3 5s1.3 3 3 3c.8 0 1.5-.3 2-.8l7.1 4.1c-.1.2-.1.5-.1.7s0 .5.1.7L8 16.9c-.5-.5-1.2-.8-2-.8-1.6 0-2.9 1.3-2.9 2.9s1.3 2.9 2.9 2.9c1.6 0 2.9-1.3 2.9-2.9 0-.2 0-.4-.1-.7l7.1-4.2c.5.5 1.2.8 2 .8 1.7 0 3-1.3 3-3S19.7 9 18 9z"/>
    </symbol>
    <symbol id="star" viewBox="0 0 24 24">
      <title>star icon</title>
      <path d="M12 17.273L18.18 21l-1.635-7.03L22 9.245l-7.19-.617L12 2 9.19 8.627 2 9.244l5.455 4.727L5.82 21z"/>
    </symbol>
    <symbol id="thumbs-down" viewBox="0 0 24 24">
      <title>thumbs-down icon</title>
      <path d="M15 3H6c-.8 0-1.5.5-1.8 1.2l-3 7.1c-.1.2-.2.4-.2.7v2c0 1.1.9 2 2 2h6.3l-1 4.6v.3c0 .4.2.8.4 1.1l1.1 1 6.6-6.6c.4-.4.6-.9.6-1.4V5c0-1.1-.9-2-2-2zm4 0v12h4V3h-4z"/>
    </symbol>
    <symbol id="thumbs-up" viewBox="0 0 24 24">
      <title>thumbs-up icon</title>
      <path d="M1 21h4V9H1v12zm22-11c0-1.1-.9-2-2-2h-6.3l1-4.6v-.3c0-.4-.2-.8-.4-1.1l-1.1-1-6.6 6.6c-.4.3-.6.8-.6 1.4v10c0 1.1.9 2 2 2h9c.8 0 1.5-.5 1.8-1.2l3-7.1c.1-.2.1-.5.1-.7v-2h.1c0 .1 0 0 0 0z"/>
    </symbol>
    <symbol id="tingle" viewBox="0 0 470 129.786">
      <title>tingle icon</title>
      <path d="M21.32 120.513v-1.06h-4.372v-7.77h3.747v-1.06h-3.747v-2.297H15.7v2.296H5.71v-2.296H4.55v2.296H.8v1.06H4.55v7.77H.09v1.06h6.69c-1.666 1.768-3.926 3.27-6.78 4.505.297.354.535.706.714 1.06 3.15-1.59 5.65-3.443 7.493-5.563h4.906c1.546 2.062 4.103 3.798 7.67 5.21.06-.117.18-.293.358-.53.12-.233.21-.41.27-.53-2.915-1-5.235-2.383-6.96-4.15h6.87zm-15.61-8.83h9.99v1.942H5.71v-1.942zm0 2.914h9.99v1.942H5.71v-1.943zm0 4.856v-1.942h9.99v1.943H5.71zM11.33 124.752H16.5v-.97H11.33v-2.12h-1.16v2.12H4.905v.97h5.263v2.56H1.337v.973H19.98v-.972h-8.65zM34.52 111.153h8.03v-1.147H24.62v1.147h8.563v6.27H22.836v1.236h10.347v7.24c.12 1.354-.595 1.972-2.14 1.854h-2.945c.118.47.208.912.268 1.325h3.21c2.022 0 3.003-1.003 2.945-3.004v-7.418h9.724v-1.236H34.52v-6.27zM59.587 118.04h-11.24v-7.947H47.01v17.573h1.337v-8.477h11.24v8.476h1.337v-17.573h-1.337zM63.51 111.242h6.424v16.424h1.338v-16.424h6.422v-1.15H63.51zM88.755 126.253h-.09l-6.243-16.16h-2.23v17.66h1.25v-16.6h.177l6.51 16.513h1.16l6.512-16.513h.178v16.6h1.338v-17.66h-2.32zM102.314 110.093h-1.338v17.66h11.24v-1.058h-9.902zM120.42 116.01c-1.783 0-3.18.618-4.192 1.854l.714-6.535h8.117v-1.148h-9.19l-1.07 9.184.893.177c.95-1.59 2.408-2.385 4.37-2.385 2.914.12 4.43 1.708 4.55 4.77-.12 3.178-1.665 4.827-4.637 4.944-2.676 0-4.224-1.324-4.64-3.974l-1.248.354c.714 3.12 2.735 4.68 6.066 4.68 3.747-.177 5.678-2.236 5.798-6.182-.24-3.65-2.082-5.563-5.53-5.74zM144.06 121.838c-.714-1.06-1.726-2.385-3.033-3.974-.24-.294-.417-.53-.536-.707l-.89.707c1.188 1.472 2.347 3.032 3.478 4.68l.98-.706zM142.187 108.68l-1.25-.265c-.95 3.062-2.08 5.65-3.39 7.77l.536.266c.237.178.416.296.536.355.474-.765 1.098-2 1.872-3.71h6.6c0 .59-.03 1.562-.088 2.915-.06 4.71-.15 7.8-.268 9.27 0 1.768-.952 2.62-2.854 2.563-1.606 0-2.825-.03-3.657-.09.118.178.208.5.267.973.06.117.09.205.09.265h3.478c2.616-.06 3.895-1.235 3.836-3.53.18-2.826.326-6.858.446-12.1v-1.412h-7.403c.473-1.118.89-2.208 1.247-3.268zM133.177 108.68l-1.25-.265c-.237 1.002-.594 2.208-1.07 3.62h-2.32v17.132h1.16v-1.942h5.71v1.766h1.25v-16.953h-4.55c.357-1.06.713-2.178 1.07-3.357zm2.23 17.573h-5.71v-6.093h5.71v6.093zm0-13.157v6.005h-5.71v-6.004h5.71zM154.764 125.723h1.25c.057 1.413-.567 2.59-1.874 3.532l.624.53c1.486-.942 2.2-2.415 2.14-4.415v-1.943h-2.14v2.296zM181.792 110.093l.267-1.59-1.25-.176c-.178 1.12-.357 2.267-.535 3.443h-6.333v1.148h6.066c-1.19 6.182-3.48 11.038-6.87 14.57l.983.972c2.677-3.003 4.64-6.563 5.888-10.686h.535c.95 3.062 2.438 5.534 4.46 7.418-1.725 1.12-4.34 2.148-7.85 3.09.297.355.536.766.714 1.237 3.39-1.06 6.124-2.24 8.207-3.533 1.962 1.354 4.518 2.5 7.67 3.443.12-.118.238-.324.358-.618.18-.295.297-.53.357-.706-3.332-.825-5.8-1.795-7.405-2.914 2.32-1.884 4.014-4.356 5.084-7.418v-1.06h-11.775c.357-1.236.654-2.5.892-3.797h13.38v-1.148h-13.113c.06-.352.148-.91.268-1.677zm9.01 7.683c-.835 2.71-2.41 4.916-4.73 6.623-1.903-1.53-3.33-3.738-4.28-6.624h9.01zM204.18 114.156v-1.148h-4.19c.295-1.413.563-2.914.8-4.503l-1.248-.09c-.06.473-.178 1.237-.357 2.297-.12 1.002-.238 1.767-.357 2.296h-2.408v1.148h2.14c-.594 3.12-1.07 5.387-1.426 6.8.357.295.92.736 1.695 1.324.713.648 1.248 1.12 1.605 1.413-.892 1.53-2.35 2.973-4.37 4.327l.98.97c1.963-1.588 3.39-3.09 4.282-4.502 1.367 1.178 2.35 1.973 2.944 2.384l.983-.883c-1.012-.825-2.112-1.68-3.3-2.563 1.127-2.06 1.87-5.15 2.228-9.27zm-3.12 8.477c-1.013-.824-1.638-1.325-1.874-1.502-.417-.293-.714-.498-.892-.617.466-1.538.884-3.218 1.26-5.025l.256-1.332h3.122c-.178 3.473-.803 6.3-1.873 8.477zM199.72 114.685c-.053.273-.11.536-.166.803-.208 1.085-.154.827.167-.803zM212.12 115.215l4.728-3.974v-1.324h-11.24v1.06h9.724l-4.46 3.798v3.532h-6.155v1.147h6.155v6.888c.06 1.062-.476 1.56-1.605 1.503-.892 0-1.784-.03-2.676-.09.12.472.21.913.27 1.326h2.586c1.842-.06 2.734-.915 2.676-2.563v-7.064h5.62v-1.147h-5.62v-3.09zM233.528 108.68l-1.25-.265c-.95 3.062-2.08 5.65-3.39 7.77l.536.266c.237.178.416.296.536.355.475-.765 1.1-2 1.873-3.71h6.6c0 .59-.03 1.562-.088 2.915-.06 4.71-.15 7.8-.268 9.27 0 1.768-.952 2.62-2.854 2.563-1.606 0-2.825-.03-3.657-.09.118.178.208.5.267.973.06.117.09.205.09.265h3.478c2.617-.06 3.896-1.235 3.837-3.53.18-2.826.326-6.858.446-12.1v-1.412h-7.403c.475-1.118.89-2.208 1.248-3.268zM224.52 108.68l-1.25-.265c-.238 1.002-.595 2.208-1.07 3.62h-2.32v17.132h1.16v-1.942h5.71v1.766h1.248v-16.953h-4.55c.357-1.06.714-2.178 1.07-3.357zm2.23 17.573h-5.71v-6.093h5.71v6.093zm0-13.157v6.005h-5.71v-6.004h5.71zM235.4 121.838c-.712-1.06-1.724-2.385-3.03-3.974-.24-.294-.418-.53-.537-.707l-.892.707c1.19 1.472 2.35 3.032 3.48 4.68l.98-.706zM246.106 125.723h1.25c.057 1.413-.567 2.59-1.874 3.532l.624.53c1.486-.942 2.2-2.415 2.14-4.415v-1.943h-2.14v2.296zM282.5 113.625c-.714-.706-1.458-1.383-2.23-2.03l-.714.617c.654.59 1.367 1.296 2.14 2.12l.804-.707zM279.02 109.74c.298-.53.506-.94.625-1.235l-1.25-.177c-.95 2.002-2.11 3.71-3.478 5.12.357.178.714.414 1.07.708.714-.884 1.396-1.824 2.052-2.826h7.94v-1.06h-7.227l.268-.53zM268.317 111.33h7.315v-1.06h-6.512c.357-.53.714-1.148 1.07-1.855l-1.248-.177c-1.07 2.062-2.528 3.856-4.37 5.387.178.12.474.384.89.795 1.07-.94 2.02-1.97 2.855-3.09zM272.51 116.098h11.06v10.773c.057.942-.477 1.384-1.606 1.325h-1.25c-.534-.06-.95-.088-1.248-.088.118.41.118.47 0 .177.118.47.18.823.18 1.06 1.188 0 2.08-.03 2.675-.09 1.726 0 2.556-.793 2.5-2.383V115.04h-12.31v1.06zM267.514 114.685c.772.648 1.546 1.413 2.32 2.296l.89-.793c-.833-.824-1.605-1.56-2.318-2.208l-.892.705zM272.866 113.625c-.595-.706-1.25-1.383-1.962-2.03l-.803.617c.12.177.327.413.625.707.594.588 1.01 1.06 1.25 1.412l.89-.707zM279.913 118.306h-8.83v8.035h8.83v-8.034zm-1.16 6.976h-6.512v-2.473h6.513v2.472zm0-3.444h-6.512v-2.473h6.513v2.473zM266.265 117.158h1.25v12.274h-1.25zM301.856 108.504h-1.248v3.18h-6.602v1.146h6.602v3.975h-5.888v1.06h13.113v-1.06h-5.977v-3.975h7.136v-1.147h-7.136zM295.167 129.52h1.16v-1.59h9.81v1.59h1.16v-8.564h-12.13v8.565zm1.16-7.505h9.81v4.856h-9.81v-4.855zM288.476 109.564c1.426 1.178 2.556 2.18 3.39 3.002l.892-.972c-1.31-1.177-2.44-2.12-3.39-2.825l-.892.794zM291.776 117.6c-.892-.824-2.05-1.736-3.478-2.738l-.803.795c.95.706 2.08 1.678 3.39 2.914l.89-.97zM288.387 128.903l1.34.44c.414-1.648 1.216-4.267 2.407-7.858-.535-.177-.922-.354-1.16-.53-.774 2.768-1.636 5.417-2.587 7.948zM326.743 121.838c-.713-1.06-1.725-2.385-3.032-3.974-.238-.294-.416-.53-.535-.707l-.892.707c1.19 1.472 2.35 3.032 3.48 4.68l.98-.706zM324.87 108.68l-1.25-.265c-.95 3.062-2.08 5.65-3.388 7.77.118.06.297.148.536.266.237.178.415.296.535.355.475-.765 1.1-2 1.873-3.71h6.6c0 .59-.03 1.562-.09 2.915-.058 4.71-.148 7.8-.266 9.27 0 1.768-.952 2.62-2.855 2.563-1.605 0-2.825-.03-3.657-.09.118.178.207.5.267.973.06.117.09.205.09.265h3.478c2.616-.06 3.895-1.235 3.836-3.53.177-2.826.325-6.858.445-12.1v-1.412h-7.404c.476-1.118.894-2.208 1.25-3.268zM315.86 108.68l-1.25-.265c-.237 1.002-.594 2.208-1.07 3.62h-2.318v17.132h1.16v-1.942h5.71v1.766h1.248v-16.953h-4.55c.357-1.06.714-2.178 1.07-3.357zm2.23 17.573h-5.708v-6.093h5.71v6.093zm0-13.157v6.005h-5.708v-6.004h5.71zM337.447 125.723h1.25c.058 1.413-.566 2.59-1.874 3.532l.624.53c1.487-.942 2.2-2.415 2.142-4.415v-1.943h-2.143v2.296zM370.185 120.337c.058 4.356-1.873 6.534-5.798 6.534-3.807 0-5.68-2.177-5.62-6.533v-10.244h-1.338v10.244c-.06 5.12 2.258 7.65 6.957 7.594 4.817.06 7.194-2.472 7.136-7.593v-10.244h-1.338v10.244zM375.805 110.093h1.338v17.573h-1.338zM390.254 116.098c.415.413.683.707.803.883 2.795-1.293 4.103-3.295 3.924-6.004h4.193c0 .825-.06 1.65-.178 2.473 0 1.06-.536 1.56-1.606 1.5h-2.142c.118.413.18.795.18 1.148h2.05c1.724 0 2.616-.823 2.676-2.473.058-.53.118-1.265.18-2.207.057-.707.088-1.236.088-1.59h-9.277v1.147h2.676c.12 2.356-1.068 4.063-3.566 5.123zM397.033 120.513h3.925v-1.06h-3.925v-2.56h-1.16v2.56h-2.764c.117-.234.236-.56.355-.97.18-.472.297-.796.357-.973l-1.16-.265c-.595 1.885-1.308 3.562-2.14 5.033.296.06.653.207 1.07.44.356-.646.713-1.382 1.07-2.207h3.21v3.445h-5.44v1.06h5.44v4.504h1.16v-4.505h4.46v-1.06h-4.46v-3.442zM388.738 111.86v-1.148h-4.46c.414-.588.802-1.236 1.16-1.942l-1.07-.44c-1.07 2.236-2.56 4.237-4.46 6.004.117.06.266.176.445.353.237.236.386.384.446.44l.802-.793v7.506c.118 3.062-.446 5.356-1.695 6.888.356.117.683.323.98.618 1.13-1.59 1.696-3.562 1.696-5.917h2.498v3.443h1.07v-3.444h2.5v3.443c.058.823-.417 1.206-1.428 1.148h-1.516c.118.354.18.736.18 1.148.178 0 .504-.03.98-.088h.625c1.547 0 2.29-.707 2.23-2.12v-12.716h-2.854l1.872-2.384zm-3.657 10.596h-2.407v-3.09h2.408v3.09zm0-4.062h-2.407v-3.09h2.408v3.09zm.358-4.15h-3.835c.77-.765 1.456-1.618 2.05-2.56h3.837l-2.052 2.56zm3.21 8.212h-2.498v-3.09h2.498v3.09zm0-7.153v3.09h-2.498v-3.09h2.498zM408.362 114.067c-.773-.823-2.14-2.207-4.103-4.15l-.893.795c1.605 1.59 2.912 2.974 3.924 4.15l1.072-.795zM421.742 112.39h-5.976v-3.975h-1.25v3.974H409.7v1.147h4.817c0 2.885-.09 4.856-.268 5.916h-5.798v1.06h5.62c-.655 3.003-3.153 5.623-7.493 7.86.356.353.682.706.98 1.06 4.34-2.415 6.838-5.21 7.493-8.39 1.308 3.65 4.073 6.327 8.296 8.036.057-.06.147-.178.266-.355.237-.354.446-.618.624-.795-3.984-1.236-6.72-3.71-8.206-7.418h8.385v-1.06h-2.677v-7.063zm-1.25 7.063h-4.905c.118-1.824.18-3.797.18-5.916h4.726v5.916zM407.203 118.04c-.24-.117-.446-.205-.624-.265-.835 2.355-2.053 5.387-3.66 9.096l1.25.707c1.546-4.062 2.766-7.122 3.658-9.184-.12-.057-.328-.176-.625-.353zM425.935 113.36h6.244c0 .355-.032.884-.09 1.59-.06 1.473-.12 2.532-.18 3.18-.12 4.592-2.2 8.066-6.243 10.42l.982.972c4.102-2.473 6.242-6.063 6.42-10.773h9.635v.97c-.12 2.473-.238 4.15-.356 5.034-.12 1.942-1.22 2.854-3.302 2.737H435.3c.12.355.208.796.268 1.325h3.39c2.913.06 4.46-1.236 4.638-3.885 0-.235.03-.618.09-1.148.18-2.825.267-4.886.267-6.182H433.16c.18-1.412.267-2.825.267-4.238h13.56v-1.148h-21.053v1.147zM438.066 111.683c-.476-1.06-.982-2.178-1.516-3.355l-1.25.353c.18.414.476 1.06.893 1.944.297.706.505 1.207.624 1.5l1.25-.44zM449.573 113.45h1.25v-1.943h16.947v1.942h1.16v-2.915h-8.563c-.12-.294-.3-.735-.536-1.324-.12-.41-.238-.764-.356-1.06l-1.07.266c.18.707.415 1.413.714 2.12h-9.545v2.913zM449.04 115.57h5.44c-.596.705-1.22 1.383-1.873 2.03.535.176 1.367.383 2.497.617 1.427.413 2.498.707 3.212.884-1.963.53-4.877 1.002-8.742 1.413l.446 1.148c4.757-.587 8.118-1.293 10.08-2.118 2.676.706 5.143 1.413 7.404 2.12l.624-1.06c-1.904-.53-4.104-1.09-6.6-1.68 1.485-.764 2.615-1.883 3.388-3.354h4.638v-1.06H456.8c.534-.647 1.07-1.266 1.604-1.855l-1.25-.442c-.534.708-1.13 1.474-1.783 2.297h-6.332v1.062zm6.866 0h7.672c-.834 1.353-2.022 2.325-3.568 2.913-1.547-.41-3.42-.854-5.62-1.325.18-.177.446-.44.803-.795.297-.353.535-.618.713-.794zM469.733 124.045v-1.06h-9.812v-1.766h-1.158v1.765h-9.812v1.06h8.652c-2.14 1.65-5.144 2.884-9.01 3.71.358.353.595.734.715 1.147 4.044-1.06 7.194-2.62 9.455-4.68v5.298h1.16v-5.3c2.2 1.944 5.32 3.445 9.365 4.505.18-.413.415-.795.713-1.148-3.866-.764-6.84-1.942-8.92-3.532h8.653zM0 6.07h32.39v84.244H47.44V6.07h32.39V.25H0zM93.6.25h15.054v90.064H93.6zM137.904 19.212h.5l63.493 73.257h3.496V.25h-6.635v65.86h-.57L139.545.25h-8.42v90.064h6.78zM287.757 91.894c3.685-.383 7.063-.946 10.13-1.688 3.068-.742 5.932-1.652 8.597-2.73 2.663-1.076 5.303-2.333 7.92-3.77V44.134H282.44v5.315h16.908v31.6c-2.473 2.01-5.29 3.555-8.454 4.632-3.164 1.077-6.718 1.616-10.666 1.616-5.422 0-10.476-.97-15.16-2.91-4.685-1.938-8.775-4.69-12.27-8.258s-6.243-7.9-8.24-13c-2-5.1-2.997-10.81-2.997-17.13 0-6.32.927-12.03 2.782-17.128 1.855-5.1 4.434-9.432 7.74-13 3.307-3.567 7.23-6.32 11.772-8.26 4.54-1.938 9.5-2.908 14.875-2.908 5.993 0 11.296 1.688 15.91 5.063 4.61 3.376 8.82 8.726 12.627 16.052l6.49-4.382c-1.854-3.016-4.065-5.925-6.634-8.726-2.568-2.8-5.505-5.28-8.81-7.433-3.308-2.156-6.97-3.867-10.988-5.136-4.02-1.268-8.407-1.903-13.163-1.903-4.947 0-9.62.587-14.02 1.76-4.398 1.174-8.465 2.826-12.198 4.957-3.735 2.13-7.075 4.668-10.023 7.613-2.95 2.945-5.458 6.188-7.527 9.732-2.07 3.543-3.663 7.326-4.78 11.348-1.118 4.022-1.677 8.14-1.677 12.353 0 4.214.582 8.295 1.748 12.245 1.165 3.95 2.818 7.65 4.958 11.096s4.744 6.583 7.812 9.408 6.503 5.255 10.31 7.29c3.804 2.035 7.93 3.615 12.377 4.74 4.447 1.125 9.143 1.688 14.09 1.688 4.663 0 8.836-.193 12.522-.576zM395.305 84.497h-45.017V.25h-15.053v90.064h60.07zM470 6.07V.25h-62.21v90.064H470v-5.817h-47.157V44.134H470v-5.818h-47.157V6.07z"/>
    </symbol></svg>
